<?xml version="1.0" encoding="utf-8"?>
<!-- Generator: $$$/GeneralStr/196=Adobe Illustrator 27.6.0, SVG Export Plug-In . SVG Version: 6.00 Build 0)  -->
<svg version="1.1" xmlns="http://www.w3.org/2000/svg" xmlns:xlink="http://www.w3.org/1999/xlink" x="0px" y="0px"
	 viewBox="0 0 800 800" style="enable-background:new 0 0 800 800;" xml:space="preserve">
<style type="text/css">
	.st0{fill:none;stroke:#000000;stroke-miterlimit:10;}
	.st1{stroke:#000000;stroke-width:5;stroke-miterlimit:10;}
	.st2{fill:none;stroke:#000000;stroke-width:20;stroke-miterlimit:10;}
	.st3{fill:#29ABE2;stroke:#29ABE2;stroke-width:3;stroke-miterlimit:10;}
	.st4{fill:#FFFFFF;stroke:#000000;stroke-width:3;stroke-miterlimit:10;}
	.st5{fill:#FF0000;stroke:#FF0000;stroke-width:3;stroke-miterlimit:10;}
	.st6{fill:#D9E021;stroke:#D9E021;stroke-width:3;stroke-miterlimit:10;}
</style>
	<g id="Ebene_6">
	<line class="st0" x1="81.43" y1="78.53" x2="708.13" y2="75.75"/>
		<line class="st0" x1="84.45" y1="138.82" x2="711.14" y2="136.04"/>
		<line class="st0" x1="79.02" y1="439.96" x2="705.71" y2="437.18"/>
		<line class="st0" x1="77.24" y1="560.42" x2="703.93" y2="557.64"/>
		<line class="st0" x1="75.37" y1="620.64" x2="702.06" y2="617.86"/>
		<line class="st0" x1="81.61" y1="199.02" x2="708.3" y2="196.24"/>
		<line class="st0" x1="77.15" y1="500.17" x2="703.84" y2="497.39"/>
		<line class="st0" x1="80.72" y1="259.25" x2="707.41" y2="256.47"/>
		<line class="st0" x1="79.83" y1="319.48" x2="706.52" y2="316.7"/>
		<line class="st0" x1="78.94" y1="379.71" x2="705.63" y2="376.93"/>
</g>
	<g id="Ebene_1">
	<path class="st1" d="M65,76c-0.01,8.64,1.73,552.59,1.12,546.59"/>
		<path class="st1" d="M717.86,76c-0.01,8.64,1.73,552.59,1.12,546.59"/>
		<polyline class="st2" points="391.43,102.24 532.89,355.88 625.37,480.51 703.72,330.73 	"/>
		<polyline class="st2" points="76.27,151.38 203.58,294.6 271.04,206.04 391.82,330.67 705.2,274.92 	"/>
</g>
	<g id="Ebene_3">
	<path class="st3" d="M396.37,224.8h217.62l-32.64,360.78H429.01c-7.02-77.62-14.05-155.24-21.07-232.86
		C404.09,310.08,400.23,267.44,396.37,224.8z"/>
		<path class="st4" d="M265.76,428.58"/>
</g>
	<g id="Ebene_5">
	<polyline class="st2" points="81.2,274.29 253.12,614.3 463.12,368.32 	"/>
</g>
	<g id="Ebene_2">
	<path class="st5" d="M502.86,440.67c1.66-1.55,3.12-3.32,4.18-5.33c8.59-16.18,121.64-73.29,137.38-39.4
		c10.03,21.61,29.43,22.15,37.85,21.25c3.42-0.36,6.88,0.07,10.12,1.24c14.74,5.34,51.91,23.25,60.44,69.97
		c5.45,29.87,29.26,86.46-31.44,159.95c-55.1,66.73-143,43.47-149.41,41.66c-0.25-0.07-0.49-0.13-0.74-0.2
		c-5.15-1.26-63.02-16.25-87.35-58.49c-44.36-77.03-23.68-122.51-20.34-132.76C465.17,493.62,491.59,451.19,502.86,440.67z"/>
</g>
	<g id="Ebene_4">
	<path class="st6" d="M75.88,475.59c0,0,36.63,255.35,146.53,256.77s146.53,0,146.53,0c62.23,0.66,119.81-62.58,146.53-256.77H75.88
		z"/>
</g>
</svg>
